REM MD5 7373c8a3e9165576e7251c0905ec2140
FILE "True Pinball (Europe).bin" BINARY
  TRACK 01 MODE2/2352
    INDEX 01 00:00:00
  TRACK 02 AUDIO
    INDEX 00 03:24:11
    INDEX 01 03:26:11
  TRACK 03 AUDIO
    INDEX 00 06:31:28
    INDEX 01 06:33:28
  TRACK 04 AUDIO
    INDEX 00 09:54:37
    INDEX 01 09:56:37
  TRACK 05 AUDIO
    INDEX 00 13:35:62
    INDEX 01 13:37:62
  TRACK 06 AUDIO
    INDEX 00 15:30:47
    INDEX 01 15:32:47
  TRACK 07 AUDIO
    INDEX 00 18:33:64
    INDEX 01 18:35:64
  TRACK 08 AUDIO
    INDEX 00 19:12:62
    INDEX 01 19:14:62
  TRACK 09 AUDIO
    INDEX 00 19:58:38
    INDEX 01 20:00:38
  TRACK 10 AUDIO
    INDEX 00 20:39:28
    INDEX 01 20:41:28
  TRACK 11 AUDIO
    INDEX 00 21:32:04
    INDEX 01 21:34:04
  TRACK 12 AUDIO
    INDEX 00 22:12:69
    INDEX 01 22:14:69
  TRACK 13 AUDIO
    INDEX 00 22:44:74
    INDEX 01 22:46:74
  TRACK 14 AUDIO
    INDEX 00 23:22:13
    INDEX 01 23:24:13
  TRACK 15 AUDIO
    INDEX 00 24:08:71
    INDEX 01 24:10:71
  TRACK 16 AUDIO
    INDEX 00 24:59:02
    INDEX 01 25:01:02
  TRACK 17 AUDIO
    INDEX 00 25:41:20
    INDEX 01 25:43:20
  TRACK 18 AUDIO
    INDEX 00 26:20:03
    INDEX 01 26:22:03
  TRACK 19 AUDIO
    INDEX 00 27:08:13
    INDEX 01 27:10:13
  TRACK 20 AUDIO
    INDEX 00 27:55:74
    INDEX 01 27:57:74
  TRACK 21 AUDIO
    INDEX 00 28:36:34
    INDEX 01 28:38:34
  TRACK 22 AUDIO
    INDEX 00 29:35:72
    INDEX 01 29:37:72
  TRACK 23 AUDIO
    INDEX 00 30:21:22
    INDEX 01 30:23:22
  TRACK 24 AUDIO
    INDEX 00 31:04:50
    INDEX 01 31:06:50
  TRACK 25 AUDIO
    INDEX 00 31:58:12
    INDEX 01 32:00:12
  TRACK 26 AUDIO
    INDEX 00 32:39:25
    INDEX 01 32:41:25
  TRACK 27 AUDIO
    INDEX 00 33:29:54
    INDEX 01 33:31:54
  TRACK 28 AUDIO
    INDEX 00 34:07:18
    INDEX 01 34:09:18
  TRACK 29 AUDIO
    INDEX 00 34:55:34
    INDEX 01 34:57:34
  TRACK 30 AUDIO
    INDEX 00 35:39:26
    INDEX 01 35:41:26
  TRACK 31 AUDIO
    INDEX 00 36:26:24
    INDEX 01 36:28:24
  TRACK 32 AUDIO
    INDEX 00 38:02:08
    INDEX 01 38:04:08
  TRACK 33 AUDIO
    INDEX 00 39:19:06
    INDEX 01 39:21:06
  TRACK 34 AUDIO
    INDEX 00 40:28:19
    INDEX 01 40:30:19
  TRACK 35 AUDIO
    INDEX 00 41:31:32
    INDEX 01 41:33:32
  TRACK 36 AUDIO
    INDEX 00 42:49:04
    INDEX 01 42:51:04
  TRACK 37 AUDIO
    INDEX 00 43:42:52
    INDEX 01 43:44:52
  TRACK 38 AUDIO
    INDEX 00 44:30:67
    INDEX 01 44:32:67
  TRACK 39 AUDIO
    INDEX 00 45:17:15
    INDEX 01 45:19:15
  TRACK 40 AUDIO
    INDEX 00 46:15:45
    INDEX 01 46:17:45
  TRACK 41 AUDIO
    INDEX 00 47:13:43
    INDEX 01 47:15:43
  TRACK 42 AUDIO
    INDEX 00 48:34:21
    INDEX 01 48:36:21
  TRACK 43 AUDIO
    INDEX 00 49:22:50
    INDEX 01 49:24:50
  TRACK 44 AUDIO
    INDEX 00 50:14:11
    INDEX 01 50:16:11
  TRACK 45 AUDIO
    INDEX 00 50:48:49
    INDEX 01 50:50:49
  TRACK 46 AUDIO
    INDEX 00 52:03:19
    INDEX 01 52:05:19
  TRACK 47 AUDIO
    INDEX 00 52:45:35
    INDEX 01 52:47:35
  TRACK 48 AUDIO
    INDEX 00 53:24:53
    INDEX 01 53:26:53
  TRACK 49 AUDIO
    INDEX 00 54:06:01
    INDEX 01 54:08:01
  TRACK 50 AUDIO
    INDEX 00 54:54:06
    INDEX 01 54:56:06
REM LEADOUT 58:38:36
